Coordinates
version=1
nRows=43
nColumns=12
inDegrees=yes

Units are S.I. units (second, meters, Newtons, ...)
Angles are in degrees

endheader
time	SC_y	SC_z	SC_x	AC_y	AC_z	AC_x	GH_y	GH_z	GH_yy	EL_x	PS_y
       0.0              -20.31          25.01          29.23          54.82         -4.395        -0.9153         -145.1          27.43          46.16          114.0          122.2
   0.04159              -20.31          25.01          29.23          54.82         -4.397        -0.9179         -145.1          27.43          46.15          114.0          122.2
   0.08318              -20.31          25.01          29.23          54.82         -4.398        -0.9207         -145.1          27.43          46.14          114.0          122.2
    0.1248              -20.31          25.01          29.22          54.82           -4.4        -0.9237         -145.0          27.43          46.13          113.9          122.2
    0.1664              -20.31           25.0          29.22          54.82         -4.402        -0.9268         -145.0          27.43          46.12          113.9          122.2
     0.208              -20.31           25.0          29.21          54.83         -4.404        -0.9302         -144.9          27.43          46.11          113.9          122.2
    0.2495              -20.31           25.0          29.21          54.83         -4.406        -0.9337         -144.9          27.43          46.09          113.9          122.2
    0.2911              -20.31           25.0           29.2          54.83         -4.408        -0.9376         -144.8          27.42          46.08          113.9          122.2
    0.3327              -20.31           25.0           29.2          54.83          -4.41        -0.9417         -144.8          27.42          46.07          113.9          122.2
    0.3743              -20.31           25.0          29.19          54.83         -4.413        -0.9461         -144.7          27.42          46.05          113.8          122.2
    0.4159              -20.31           25.0          29.19          54.83         -4.415        -0.9508         -144.6          27.42          46.04          113.8          122.2
    0.4575               -20.3           25.0          29.18          54.84         -4.418        -0.9559         -144.6          27.42          46.02          113.8          122.2
    0.4991               -20.3           25.0          29.18          54.84         -4.421        -0.9613         -144.5          27.42           46.0          113.8          122.2
    0.5407               -20.3           25.0          29.17          54.84         -4.425        -0.9673         -144.4          27.41          45.98          113.7          122.2
    0.5823               -20.3           25.0          29.16          54.84         -4.428        -0.9737         -144.3          27.41          45.96          113.7          122.1
    0.6239               -20.3           25.0          29.15          54.85         -4.432        -0.9806         -144.2          27.41          45.93          113.7          122.1
    0.6655               -20.3          24.99          29.14          54.85         -4.436        -0.9882         -144.1          27.41          45.91          113.6          122.1
    0.7071               -20.3          24.99          29.13          54.85         -4.441        -0.9964         -144.0           27.4          45.88          113.6          122.1
    0.7486              -20.29          24.99          29.12          54.86         -4.446         -1.005         -143.9           27.4          45.85          113.5          122.1
    0.7902              -20.29          24.99          29.11          54.86         -4.452         -1.015         -143.7           27.4          45.81          113.5          122.1
    0.8318              -20.29          24.99           29.1          54.87         -4.458         -1.026         -143.6          27.39          45.78          113.4          122.1
    0.8734              -20.29          24.99          29.08          54.87         -4.465         -1.038         -143.4          27.39          45.74          113.4          122.1
     0.915              -20.29          24.98          29.07          54.88         -4.472         -1.051         -143.2          27.39          45.69          113.3          122.1
    0.9566              -20.28          24.98          29.05          54.88          -4.48         -1.066         -143.0          27.38          45.64          113.3          122.0
    0.9982              -20.28          24.98          29.03          54.89         -4.489         -1.082         -142.8          27.38          45.58          113.2          122.0
      1.04              -20.28          24.98          29.01           54.9           -4.5           -1.1         -142.6          27.37          45.52          113.1          122.0
     1.081              -20.27          24.97          28.98          54.91         -4.511          -1.12         -142.3          27.36          45.45          113.0          122.0
     1.123              -20.27          24.97          28.96          54.92         -4.524         -1.143         -142.0          27.36          45.37          112.9          121.9
     1.165              -20.26          24.97          28.92          54.93         -4.539         -1.168         -141.6          27.35          45.29          112.8          121.9
     1.206              -20.26          24.96          28.89          54.94         -4.555         -1.197         -141.2          27.34          45.19          112.6          121.9
     1.248              -20.25          24.96          28.85          54.96         -4.574         -1.231         -140.7          27.33          45.07          112.4          121.8
     1.289              -20.24          24.95           28.8          54.97         -4.596         -1.269         -140.2          27.31          44.94          112.3          121.8
     1.331              -20.23          24.94          28.75          54.99         -4.621         -1.313         -139.6           27.3          44.79          112.0          121.7
     1.373              -20.22          24.93          28.69          55.01          -4.65         -1.364         -138.9          27.28          44.61          111.8          121.7
     1.414              -20.21          24.92          28.61          55.04         -4.684         -1.424         -138.0          27.26           44.4          111.5          121.6
     1.456               -20.2          24.91          28.53          55.07         -4.724         -1.495         -137.0          27.24          44.16          111.2          121.5
     1.497              -20.18           24.9          28.43          55.11         -4.771         -1.579         -135.9          27.21          43.87          110.7          121.4
     1.539              -20.16          24.88           28.3          55.15         -4.828         -1.679         -134.5          27.17          43.53          110.3          121.3
      1.58              -20.14          24.86          28.16           55.2         -4.897         -1.801         -132.8          27.13          43.11          109.7          121.2
     1.622              -20.11          24.84          27.98          55.27         -4.982          -1.95         -130.7          27.08          42.59          108.9          121.0
     1.664              -20.07          24.81          27.75          55.35         -5.086         -2.134         -128.1          27.02          41.96          108.0          120.8
     1.705              -20.02          24.77          27.47          55.45         -5.215         -2.362         -124.9          26.94          41.17          106.9          120.5
     1.747              -19.97          24.73          27.12          55.57         -5.379         -2.651         -120.9          26.85          40.18          105.5          120.2
